# xmcd
#
# Track frame offsets:
#	150
#	22809
#	43866
#	67776
#	85955
#	97524
#	114753
#	139214
#	152195
#	170163
#
# Disc length: 2617 seconds
#
# Revision: 0
# Processed by: cddbd v1.5.2PL0 Copyright (c) Steve Scherf et al.
# Submitted via: audiograbber 1.83.01
#
DISCID=720a370a
DTITLE=Der Expander des Fortschritts - ad acta
DYEAR=1990
DGENRE=OstKult Avantgarde
TTITLE0=Wolfszeit
TTITLE1=Nummer im Kopf
TTITLE2=Der Stand der Dinge
TTITLE3=Lonely Fritz
TTITLE4=Alles ich will du
TTITLE5=Warnung
TTITLE6=Buttercremeschnitte
TTITLE7=Spätherbst - Abseits
TTITLE8=Kluge Köpfe rollen gut
TTITLE9=Wasserstände und Tauchtiefen
EXTD=Die Anderen Bands (Post-Punk der 80er-Jahre) - Original Amiga Classics (20
EXTD=18) [Box-Set]\n\nMARO\n
EXTT0=
EXTT1=
EXTT2=
EXTT3=
EXTT4=
EXTT5=
EXTT6=
EXTT7=
EXTT8=
EXTT9=
PLAYORDER=
